<?xml version="1.0" encoding="UTF-8"?>
<svg version="1.1" xmlns="http://www.w3.org/2000/svg" width="2000" height="2000">
<path d="M0 0 C1.79238098 0.00090637 1.79238098 0.00090637 3.62097168 0.00183105 C22.09771828 0.02715605 40.41340052 0.35643814 58.8125 2.1875 C59.47584351 2.25302063 60.13918701 2.31854126 60.82263184 2.38604736 C144.30317497 10.69997824 223.88631016 34.76885527 330.8125 92.1875 C332.19840332 93.04408203 332.19840332 93.04408203 333.61230469 93.91796875 C364.69555461 113.2264531 394.25050252 135.25124377 421.30078125 159.921875 C423.37323557 161.79127392 425.46670386 163.62763796 427.57421875 165.45703125 C431.91502304 169.24782121 436.12307559 173.16832139 440.3125 177.125 C441.02019531 177.78951172 441.72789063 178.45402344 442.45703125 179.13867188 C449.13090746 185.42822066 455.66563047 191.77268412 461.640625 198.734375 C463.98899701 201.38685274 466.40725604 203.96264808 468.83813477 206.53930664 C474.32509814 212.35657434 479.63495945 218.22066608 484.625 224.4765625 C486.58087979 226.90045639 488.59543293 229.26025994 490.63745117 231.61157227 C497.58850769 239.65118342 503.83517805 248.16966038 510.06152344 256.77636719 C511.7284874 259.07181283 513.41199281 261.35397617 515.1015625 263.6328125 C523.58086713 275.12703812 531.29963002 287.04311643 538.8125 299.1875 C539.25078125 299.89535645 539.6890625 300.60321289 540.140625 301.33251953 C584.50211443 373.32992059 613.89766462 453.81870166 631.8125 587.1875 C631.94386353 589.04314575 631.94386353 589.04314575 632.07788086 590.9362793 C632.96840003 604.40923386 633.01262501 617.8769927 633 631.375 C632.99939575 632.56992065 632.9987915 633.76484131 632.99816895 634.99597168 C632.97284395 653.47271828 632.64356186 671.78840052 630.8125 690.1875 C630.74697937 690.85084351 630.68145874 691.51418701 630.61395264 692.19763184 C622.30002176 775.67817497 598.23114473 855.26131016 540.8125 962.1875 C539.95591797 963.57340332 539.95591797 963.57340332 539.08203125 964.98730469 C519.7735469 996.07055461 497.74875623 1025.62550252 473.078125 1052.67578125 C471.20872608 1054.74823557 469.37236204 1056.84170386 467.54296875 1058.94921875 C463.75217879 1063.29002304 459.83167861 1067.49807559 455.875 1071.6875 C455.21048828 1072.39519531 454.54597656 1073.10289063 453.86132812 1073.83203125 C447.57177934 1080.50590746 441.22731588 1087.04063047 434.265625 1093.015625 C431.61314726 1095.36399701 429.03735192 1097.78225604 426.46069336 1100.21313477 C420.64342566 1105.70009814 414.77933392 1111.00995945 408.5234375 1116 C406.09954361 1117.95587979 403.73974006 1119.97043293 401.38842773 1122.01245117 C393.34881658 1128.96350769 384.83033962 1135.21017805 376.22363281 1141.43652344 C373.92818717 1143.1034874 371.64602383 1144.78699281 369.3671875 1146.4765625 C357.87296188 1154.95586713 345.95688357 1162.67463002 333.8125 1170.1875 C333.10464355 1170.62578125 332.39678711 1171.0640625 331.66748047 1171.515625 C259.67007941 1215.87711443 179.18129834 1245.27266462 45.8125 1263.1875 C43.95685425 1263.31886353 43.95685425 1263.31886353 42.0637207 1263.45288086 C28.59076614 1264.34340003 15.1230073 1264.38762501 1.625 1264.375 C-0.16738098 1264.37409363 -0.16738098 1264.37409363 -1.99597168 1264.37316895 C-20.47271828 1264.34784395 -38.78840052 1264.01856186 -57.1875 1262.1875 C-57.85084351 1262.12197937 -58.51418701 1262.05645874 -59.19763184 1261.98895264 C-142.67817497 1253.67502176 -222.26131016 1229.60614473 -329.1875 1172.1875 C-330.57340332 1171.33091797 -330.57340332 1171.33091797 -331.98730469 1170.45703125 C-363.07055461 1151.1485469 -392.62550252 1129.12375623 -419.67578125 1104.453125 C-421.74823557 1102.58372608 -423.84170386 1100.74736204 -425.94921875 1098.91796875 C-430.29002304 1095.12717879 -434.49807559 1091.20667861 -438.6875 1087.25 C-439.39519531 1086.58548828 -440.10289062 1085.92097656 -440.83203125 1085.23632812 C-447.50590746 1078.94677934 -454.04063047 1072.60231588 -460.015625 1065.640625 C-462.36399701 1062.98814726 -464.78225604 1060.41235192 -467.21313477 1057.83569336 C-472.69233486 1052.02665627 -477.99425825 1046.17010795 -482.98046875 1039.92578125 C-485.0331283 1037.3790302 -487.13657424 1034.88980307 -489.26635742 1032.40795898 C-494.40099842 1026.4176915 -499.27860495 1020.29596887 -503.92724609 1013.91601562 C-504.82032272 1012.69110619 -505.71683112 1011.46869548 -506.61572266 1010.24804688 C-558.88341617 939.26681634 -596.31775911 859.11672932 -630.1875 677.1875 C-630.27507568 675.95040283 -630.36265137 674.71330566 -630.45288086 673.4387207 C-631.34340003 659.96576614 -631.38762501 646.4980073 -631.375 633 C-631.37439575 631.80507935 -631.3737915 630.61015869 -631.37316895 629.37902832 C-631.34784395 610.90228172 -631.01856186 592.58659948 -629.1875 574.1875 C-629.12197937 573.52415649 -629.05645874 572.86081299 -628.98895264 572.17736816 C-620.67502176 488.69682503 -596.60614473 409.11368984 -539.1875 302.1875 C-538.33091797 300.80159668 -538.33091797 300.80159668 -537.45703125 299.38769531 C-527.12489377 282.75477862 -516.06527612 266.75075631 -504.1875 251.1875 C-503.39859375 250.14207031 -502.6096875 249.09664062 -501.796875 248.01953125 C-496.6753667 241.2617745 -491.34053016 234.73157178 -485.82421875 228.29296875 C-483.46639771 225.53497097 -481.19859619 222.71303631 -478.9375 219.875 C-473.32564483 212.97814043 -467.15731513 206.6048392 -461.04345703 200.15673828 C-458.27051875 197.21454936 -455.54285561 194.23163165 -452.8125 191.25 C-446.37909925 184.25684984 -439.825993 177.50706287 -432.60546875 171.32421875 C-429.96389698 168.98990574 -427.40176518 166.58301095 -424.83789062 164.1640625 C-419.02828269 158.68395472 -413.17091398 153.38138539 -406.92578125 148.39453125 C-404.3790302 146.3418717 -401.88980307 144.23842576 -399.40795898 142.10864258 C-393.4176915 136.97400158 -387.29596887 132.09639505 -380.91601562 127.44775391 C-379.69110619 126.55467728 -378.46869548 125.65816888 -377.24804688 124.75927734 C-306.26681634 72.49158383 -226.11672932 35.05724089 -44.1875 1.1875 C-42.95040283 1.09992432 -41.71330566 1.01234863 -40.4387207 0.92211914 C-26.96576614 0.03159997 -13.4980073 -0.01262501 0 0 Z " fill="#411818" transform="translate(999.1875,367.8125)"/>
<path d="M0 0 C1.79238098 0.00090637 1.79238098 0.00090637 3.62097168 0.00183105 C22.09771828 0.02715605 40.41340052 0.35643814 58.8125 2.1875 C59.47584351 2.25302063 60.13918701 2.31854126 60.82263184 2.38604736 C144.30317497 10.69997824 223.88631016 34.76885527 330.8125 92.1875 C332.19840332 93.04408203 332.19840332 93.04408203 333.61230469 93.91796875 C364.69555461 113.2264531 394.25050252 135.25124377 421.30078125 159.921875 C423.37323557 161.79127392 425.46670386 163.62763796 427.57421875 165.45703125 C431.91502304 169.24782121 436.12307559 173.16832139 440.3125 177.125 C441.02019531 177.78951172 441.72789063 178.45402344 442.45703125 179.13867188 C449.13090746 185.42822066 455.66563047 191.77268412 461.640625 198.734375 C463.98899701 201.38685274 466.40725604 203.96264808 468.83813477 206.53930664 C474.32509814 212.35657434 479.63495945 218.22066608 484.625 224.4765625 C486.58087979 226.90045639 488.59543293 229.26025994 490.63745117 231.61157227 C497.58850769 239.65118342 503.83517805 248.16966038 510.06152344 256.77636719 C511.7284874 259.07181283 513.41199281 261.35397617 515.1015625 263.6328125 C523.58086713 275.12703812 531.29963002 287.04311643 538.8125 299.1875 C539.25078125 299.89535645 539.6890625 300.60321289 540.140625 301.33251953 C584.50211443 373.32992059 613.89766462 453.81870166 631.8125 587.1875 C631.94386353 589.04314575 631.94386353 589.04314575 632.07788086 590.9362793 C632.96840003 604.40923386 633.01262501 617.8769927 633 631.375 C632.99939575 632.56992065 632.9987915 633.76484131 632.99816895 634.99597168 C632.97284395 653.47271828 632.64356186 671.78840052 630.8125 690.1875 C630.74697937 690.85084351 630.68145874 691.51418701 630.61395264 692.19763184 C622.30002176 775.67817497 598.23114473 855.26131016 540.8125 962.1875 C539.95591797 963.57340332 539.95591797 963.57340332 539.08203125 964.98730469 C519.7735469 996.07055461 497.74875623 1025.62550252 473.078125 1052.67578125 C471.20872608 1054.74823557 469.37236204 1056.84170386 467.54296875 1058.94921875 C463.75217879 1063.29002304 459.83167861 1067.49807559 455.875 1071.6875 C455.21048828 1072.39519531 454.54597656 1073.10289063 453.86132812 1073.83203125 C447.57177934 1080.50590746 441.22731588 1087.04063047 434.265625 1093.015625 C431.61314726 1095.36399701 429.03735192 1097.78225604 426.46069336 1100.21313477 C420.64342566 1105.70009814 414.77933392 1111.00995945 408.5234375 1116 C406.09954361 1117.95587979 403.73974006 1119.97043293 401.38842773 1122.01245117 C393.34881658 1128.96350769 384.83033962 1135.21017805 376.22363281 1141.43652344 C373.92818717 1143.1034874 371.64602383 1144.78699281 369.3671875 1146.4765625 C357.87296188 1154.95586713 345.95688357 1162.67463002 333.8125 1170.1875 C333.10464355 1170.62578125 332.39678711 1171.0640625 331.66748047 1171.515625 C259.67007941 1215.87711443 179.18129834 1245.27266462 45.8125 1263.1875 C43.95685425 1263.31886353 43.95685425 1263.31886353 42.0637207 1263.45288086 C28.59076614 1264.34340003 15.1230073 1264.38762501 1.625 1264.375 C-0.16738098 1264.37409363 -0.16738098 1264.37409363 -1.99597168 1264.37316895 C-20.47271828 1264.34784395 -38.78840052 1264.01856186 -57.1875 1262.1875 C-57.85084351 1262.12197937 -58.51418701 1262.05645874 -59.19763184 1261.98895264 C-142.67817497 1253.67502176 -222.26131016 1229.60614473 -329.1875 1172.1875 C-330.57340332 1171.33091797 -330.57340332 1171.33091797 -331.98730469 1170.45703125 C-363.07055461 1151.1485469 -392.62550252 1129.12375623 -419.67578125 1104.453125 C-421.74823557 1102.58372608 -423.84170386 1100.74736204 -425.94921875 1098.91796875 C-430.29002304 1095.12717879 -434.49807559 1091.20667861 -438.6875 1087.25 C-439.39519531 1086.58548828 -440.10289062 1085.92097656 -440.83203125 1085.23632812 C-447.50590746 1078.94677934 -454.04063047 1072.60231588 -460.015625 1065.640625 C-462.36399701 1062.98814726 -464.78225604 1060.41235192 -467.21313477 1057.83569336 C-472.69233486 1052.02665627 -477.99425825 1046.17010795 -482.98046875 1039.92578125 C-485.0331283 1037.3790302 -487.13657424 1034.88980307 -489.26635742 1032.40795898 C-494.40099842 1026.4176915 -499.27860495 1020.29596887 -503.92724609 1013.91601562 C-504.82032272 1012.69110619 -505.71683112 1011.46869548 -506.61572266 1010.24804688 C-558.88341617 939.26681634 -596.31775911 859.11672932 -630.1875 677.1875 C-630.27507568 675.95040283 -630.36265137 674.71330566 -630.45288086 673.4387207 C-631.34340003 659.96576614 -631.38762501 646.4980073 -631.375 633 C-631.37439575 631.80507935 -631.3737915 630.61015869 -631.37316895 629.37902832 C-631.34784395 610.90228172 -631.01856186 592.58659948 -629.1875 574.1875 C-629.12197937 573.52415649 -629.05645874 572.86081299 -628.98895264 572.17736816 C-620.67502176 488.69682503 -596.60614473 409.11368984 -539.1875 302.1875 C-538.33091797 300.80159668 -538.33091797 300.80159668 -537.45703125 299.38769531 C-527.12489377 282.75477862 -516.06527612 266.75075631 -504.1875 251.1875 C-503.39859375 250.14207031 -502.6096875 249.09664062 -501.796875 248.01953125 C-496.6753667 241.2617745 -491.34053016 234.73157178 -485.82421875 228.29296875 C-483.46639771 225.53497097 -481.19859619 222.71303631 -478.9375 219.875 C-473.32564483 212.97814043 -467.15731513 206.6048392 -461.04345703 200.15673828 C-458.27051875 197.21454936 -455.54285561 194.23163165 -452.8125 191.25 C-446.37909925 184.25684984 -439.825993 177.50706287 -432.60546875 171.32421875 C-429.96389698 168.98990574 -427.40176518 166.58301095 -424.83789062 164.1640625 C-419.02828269 158.68395472 -413.17091398 153.38138539 -406.92578125 148.39453125 C-404.3790302 146.3418717 -401.88980307 144.23842576 -399.40795898 142.10864258 C-393.4176915 136.97400158 -387.29596887 132.09639505 -380.91601562 127.44775391 C-379.69110619 126.55467728 -378.46869548 125.65816888 -377.24804688 124.75927734 C-306.26681634 72.49158383 -226.11672932 35.05724089 -44.1875 1.1875 C-42.95040283 1.09992432 -41.71330566 1.01234863 -40.4387207 0.92211914 C-26.96576614 0.03159997 -13.4980073 -0.01262501 0 0 Z M-49.1875 33.1875 C-50.37859375 33.28401855 -51.5696875 33.38053711 -52.796875 33.47998047 C-120.08844374 38.97630093 -187.50897754 56.12705848 -248.64111328 84.98632812 C-250.45159522 85.84036179 -252.26544201 86.68727807 -254.08154297 87.52929688 C-268.66367171 94.29054467 -282.77628708 101.61997775 -296.65966797 109.71923828 C-298.8787711 111.00817842 -301.10869121 112.27336994 -303.34765625 113.52734375 C-330.8840977 129.10455284 -356.9160639 147.9569791 -381.1875 168.1875 C-381.76725586 168.66815918 -382.34701172 169.14881836 -382.94433594 169.64404297 C-390.32447568 175.77019335 -397.46653247 182.10711893 -404.49243164 188.63598633 C-405.77325359 189.80833596 -407.06628715 190.96736325 -408.36499023 192.11987305 C-414.57435398 197.63525998 -420.52620385 203.37077046 -426.3840332 209.25366211 C-427.88054925 210.75556925 -429.382383 212.25201062 -430.88476562 213.74804688 C-435.66220356 218.52218968 -440.3291862 223.34576213 -444.72290039 228.4777832 C-446.77587864 230.87435041 -448.9213618 233.18223592 -451.0625 235.5 C-455.98327302 240.9024752 -460.6145049 246.48987581 -465.1875 252.1875 C-466.11139449 253.31948786 -467.0359029 254.45097487 -467.9609375 255.58203125 C-491.80615301 284.86896926 -512.25720287 316.99119149 -530.1875 350.1875 C-530.6294873 351.00299316 -531.07147461 351.81848633 -531.52685547 352.65869141 C-538.6789925 365.90931375 -545.21644727 379.36426088 -551.1875 393.1875 C-551.62030273 394.1892627 -552.05310547 395.19102539 -552.49902344 396.22314453 C-564.1393453 423.42782664 -573.84224836 451.51962468 -581.1875 480.1875 C-581.40954102 481.04279297 -581.63158203 481.89808594 -581.86035156 482.77929688 C-591.09047997 518.6696001 -596.32500405 555.28750825 -599.1875 592.1875 C-599.26097656 593.09918945 -599.33445312 594.01087891 -599.41015625 594.95019531 C-599.85511652 600.69444311 -600.07215927 606.42761652 -600.1875 612.1875 C-600.2008136 612.82868774 -600.2141272 613.46987549 -600.22784424 614.13049316 C-601.28663378 667.46222791 -595.93911126 720.11898899 -584.125 772.125 C-583.79363037 773.58667603 -583.79363037 773.58667603 -583.45556641 775.07788086 C-579.9669229 789.92784825 -575.22923387 804.42567801 -570.375 818.875 C-570.11194061 819.65908234 -569.84888123 820.44316467 -569.57785034 821.25100708 C-568.0174338 825.89703764 -566.44773764 830.53984029 -564.86975098 835.17993164 C-564.26622833 836.95583671 -563.66561068 838.73272843 -563.06542969 840.50976562 C-550.79642706 876.59506747 -533.07769116 911.73758205 -513.1875 944.1875 C-512.66172363 945.04649902 -512.13594727 945.90549805 -511.59423828 946.79052734 C-497.06630705 970.40012183 -480.93663344 992.89309239 -463.1875 1014.1875 C-462.70684082 1014.76725586 -462.22618164 1015.34701172 -461.73095703 1015.94433594 C-455.60480665 1023.32447568 -449.26788107 1030.46653247 -442.73901367 1037.49243164 C-441.56666404 1038.77325359 -440.40763675 1040.06628715 -439.25512695 1041.36499023 C-433.73974002 1047.57435398 -428.00422954 1053.52620385 -422.12133789 1059.3840332 C-420.61943075 1060.88054925 -419.12298938 1062.382383 -417.62695312 1063.88476562 C-412.85281032 1068.66220356 -408.02923787 1073.3291862 -402.8972168 1077.72290039 C-400.50064959 1079.77587864 -398.19276408 1081.9213618 -395.875 1084.0625 C-390.4725248 1088.98327302 -384.88512419 1093.6145049 -379.1875 1098.1875 C-378.05551214 1099.11139449 -376.92402513 1100.0359029 -375.79296875 1100.9609375 C-346.50603074 1124.80615301 -314.38380851 1145.25720287 -281.1875 1163.1875 C-280.37200684 1163.6294873 -279.55651367 1164.07147461 -278.71630859 1164.52685547 C-265.46568625 1171.6789925 -252.01073912 1178.21644727 -238.1875 1184.1875 C-237.1857373 1184.62030273 -236.18397461 1185.05310547 -235.15185547 1185.49902344 C-207.94717336 1197.1393453 -179.85537532 1206.84224836 -151.1875 1214.1875 C-150.33220703 1214.40954102 -149.47691406 1214.63158203 -148.59570312 1214.86035156 C-59.21936316 1237.8458106 34.97966888 1239.19834947 144.8125 1216.1875 C145.75029297 1215.96658691 146.68808594 1215.74567383 147.65429688 1215.51806641 C164.53066527 1211.52526295 180.87584393 1206.02749831 197.26220703 1200.40185547 C200.07475283 1199.4398418 202.89112341 1198.49482912 205.71484375 1197.56640625 C227.22239549 1190.40068153 247.85723467 1180.47690051 268.16650391 1170.48486328 C270.4415174 1169.36939717 272.7235575 1168.27172155 275.01171875 1167.18359375 C313.64881987 1148.62268212 349.94200042 1123.58543912 382.8125 1096.1875 C383.39225586 1095.70684082 383.97201172 1095.22618164 384.56933594 1094.73095703 C391.94947568 1088.60480665 399.09153247 1082.26788107 406.11743164 1075.73901367 C407.39825359 1074.56666404 408.69128715 1073.40763675 409.98999023 1072.25512695 C416.19935398 1066.73974002 422.15120385 1061.00422954 428.0090332 1055.12133789 C429.50554925 1053.61943075 431.007383 1052.12298938 432.50976562 1050.62695312 C437.28720356 1045.85281032 441.9541862 1041.02923787 446.34790039 1035.8972168 C448.40087864 1033.50064959 450.5463618 1031.19276408 452.6875 1028.875 C457.60827302 1023.4725248 462.2395049 1017.88512419 466.8125 1012.1875 C467.73639449 1011.05551214 468.6609029 1009.92402513 469.5859375 1008.79296875 C487.33003045 986.99949198 503.74112137 963.46524484 517.72558594 939.06982422 C518.93596932 936.9736751 520.17485608 934.89563871 521.4140625 932.81640625 C539.59266743 902.01654845 555.87727077 868.81286828 566.96337891 834.75097656 C567.83267949 832.12657858 568.7338682 829.51409347 569.64031982 826.90232849 C579.7215337 797.82403199 587.31296588 768.50293809 592.8125 738.1875 C593.00295898 737.15544434 593.19341797 736.12338867 593.38964844 735.06005859 C597.38334528 712.97917597 599.05592065 690.53762732 600.8125 668.1875 C600.86904755 667.46971375 600.92559509 666.75192749 600.9838562 666.01239014 C601.82440976 655.0247212 602.0131055 644.07721264 602 633.0625 C601.99972809 632.19377258 601.99945618 631.32504517 601.99917603 630.42999268 C601.97612909 614.27685329 601.22225812 598.28389318 599.8125 582.1875 C599.71598145 580.99640625 599.61946289 579.8053125 599.52001953 578.578125 C594.02369907 511.28655626 576.87294152 443.86602246 548.01367188 382.73388672 C547.15963821 380.92340478 546.31272193 379.10955799 545.47070312 377.29345703 C538.70945533 362.71132829 531.38002225 348.59871292 523.28076172 334.71533203 C521.99182158 332.4962289 520.72663006 330.26630879 519.47265625 328.02734375 C503.89544716 300.4909023 485.0430209 274.4589361 464.8125 250.1875 C464.33184082 249.60774414 463.85118164 249.02798828 463.35595703 248.43066406 C457.22980665 241.05052432 450.89288107 233.90846753 444.36401367 226.88256836 C443.19166404 225.60174641 442.03263675 224.30871285 440.88012695 223.01000977 C435.36474002 216.80064602 429.62922954 210.84879615 423.74633789 204.9909668 C422.24443075 203.49445075 420.74798938 201.992617 419.25195312 200.49023438 C414.47781032 195.71279644 409.65423787 191.0458138 404.5222168 186.65209961 C402.12564959 184.59912136 399.81776408 182.4536382 397.5 180.3125 C392.0975248 175.39172698 386.51012419 170.7604951 380.8125 166.1875 C379.68051214 165.26360551 378.54902513 164.3390971 377.41796875 163.4140625 C355.62449198 145.66996955 332.09024484 129.25887863 307.69482422 115.27441406 C305.5986751 114.06403068 303.52063871 112.82514392 301.44140625 111.5859375 C258.11851939 86.01602579 211.28622222 66.54596033 162.8125 53.1875 C160.81243055 52.61743112 158.81242893 52.04712417 156.8125 51.4765625 C140.2992741 46.85750701 123.67995234 43.25451963 106.8125 40.1875 C105.77319336 39.99559082 104.73388672 39.80368164 103.66308594 39.60595703 C81.58977522 35.61397531 59.15487165 33.9434698 36.8125 32.1875 C36.09471375 32.13095245 35.37692749 32.07440491 34.63739014 32.0161438 C23.6497212 31.17559024 12.70221264 30.9868945 1.6875 31 C0.81877258 31.00027191 -0.04995483 31.00054382 -0.94500732 31.00082397 C-17.09814671 31.02387091 -33.09110682 31.77774188 -49.1875 33.1875 Z " fill="#230202" transform="translate(999.1875,367.8125)"/>
<path d="M0 0 C0.825 0.28875 1.65 0.5775 2.5 0.875 C4.06542292 4.13656488 4.98407914 7.47331268 5.83203125 10.98046875 C6.07042725 11.95411377 6.30882324 12.92775879 6.55444336 13.9309082 C6.80460205 14.9643335 7.05476074 15.99775879 7.3125 17.0625 C9.09170979 24.29997271 10.9032456 31.51728188 12.9375 38.6875 C17.57555731 55.08668423 21.71032174 71.62664312 25.80126953 88.16943359 C26.90514734 92.60039002 28.08507987 96.99362572 29.375 101.375 C31.43324685 108.40803782 33.17788173 115.51207793 34.9375 122.625 C36.86772665 130.4228101 38.80790083 138.20876893 41 145.9375 C45.39236582 161.43070534 49.32027094 177.05605687 53.1875 192.6875 C54.93601455 199.7392856 56.83769562 206.7289584 58.86962891 213.70507812 C74.89214518 268.85927047 74.89214518 268.85927047 63.1484375 293.73828125 C58.73552858 301.66426012 52.37954183 308.13356323 45.875 314.375 C40.0173637 320.13705715 34.07718275 327.4692232 33.18164062 335.85668945 C33.10905422 345.34526782 34.73860178 353.92882732 37 363.0625 C37.36624545 364.5933533 37.73079092 366.12461418 38.09375 367.65625 C38.84634853 370.82631239 39.60610197 373.9945276 40.37109375 377.16162109 C41.97597505 383.83040998 43.49088351 390.51947464 45.00805664 397.20864868 C45.83457966 400.84837509 46.66763702 404.48660556 47.5 408.125 C47.83336426 409.58332626 48.16669761 411.04165959 48.5 412.5 C48.665 413.221875 48.83 413.94375 49 414.6875 C82 559.0625 82 559.0625 138.99995422 808.43730164 C139.33343904 809.89629644 139.66692496 811.35529098 140.00041199 812.81428528 C140.83143667 816.4499961 141.66244243 820.08571126 142.4934082 823.72143555 C143.8448154 829.63416871 145.19623655 835.54689862 146.54833984 841.45947266 C146.72275604 842.22220993 146.89717224 842.9849472 147.07687378 843.77079773 C147.42827967 845.3072881 147.7797806 846.84375673 148.13137817 848.38020325 C148.98794193 852.12406423 149.84272976 855.86831133 150.69335938 859.61352539 C152.1296972 865.93131595 153.57853962 872.24421628 155.11328125 878.5390625 C159.24257221 895.59665096 160.25557724 908.48983737 151.22265625 924.203125 C145.33918023 933.32851637 138.29788917 938.7593008 128.5 943.25 C117.2589869 945.59187773 108.37738883 942.09055784 98.8125 936.125 C87.87392855 928.35702897 79.51068969 918.16361209 76.89672852 904.78808594 C76.72584717 903.65661133 76.55496582 902.52513672 76.37890625 901.359375 C76.27854568 900.70391693 76.17818512 900.04845886 76.07478333 899.37313843 C75.73210075 897.12452216 75.3973407 894.87479646 75.0625 892.625 C74.81303416 890.9763435 74.56318034 889.32774567 74.31298828 887.67919922 C73.36516339 881.4126432 72.43209876 875.14391183 71.5 868.875 C71.39947578 868.19898239 71.29895157 867.52296478 71.19538116 866.82646179 C70.39666283 861.45469733 69.59864753 856.08282857 68.80078125 850.7109375 C68.68153605 849.90823929 68.56229084 849.10554108 68.43943214 848.27851868 C67.22645252 840.11299985 66.01429146 831.94736649 64.80879688 823.78073883 C62.60573856 808.85925882 60.3800321 793.94531777 57.96383667 779.05654907 C55.62120021 764.54599811 53.54942278 749.99376363 51.42724609 735.44970703 C49.5230254 722.41286903 47.60875132 709.38053783 45.5 696.375 C42.968014 680.75919959 40.71132094 665.10331118 38.42724609 649.44970703 C36.5230254 636.41286903 34.60875132 623.38053783 32.5 610.375 C29.968014 594.75919959 27.71132094 579.10331118 25.42724609 563.44970703 C23.5230254 550.41286903 21.60875132 537.38053783 19.5 524.375 C16.968014 508.75919959 14.71132094 493.10331118 12.42724609 477.44970703 C10.52453956 464.42323541 8.61191079 451.40129596 6.50390625 438.40625 C3.93688667 422.58037919 1.65817077 406.71169042 -0.64819336 390.84619141 C-3.24494118 372.82858458 -3.24494118 372.82858458 -6.12890625 354.85546875 C-6.33974854 353.61434326 -6.55059082 352.37321777 -6.76782227 351.09448242 C-7.88115753 346.19899986 -9.77475847 342.06893456 -12.5 337.875 C-12.86867188 337.29492188 -13.23734375 336.71484375 -13.6171875 336.1171875 C-20.113124 327.20207465 -33.71273939 323.66318494 -43.46289062 319.6875 C-58.39225562 313.30240298 -67.49319594 302.91439237 -74.1015625 288.34375 C-76.52255114 281.83114897 -77.86157327 275.50216058 -78.51171875 268.59765625 C-78.59306061 267.75500717 -78.67440247 266.91235809 -78.75820923 266.04417419 C-80.02129235 252.04313496 -80.56628081 237.97962762 -81.25195312 223.94115067 C-81.63446249 216.15818316 -82.03340278 208.3760257 -82.4296875 200.59375 C-82.49631718 199.28082568 -82.49631718 199.28082568 -82.56429291 197.94137764 C-83.41849477 181.12813609 -84.3789548 164.32231185 -85.37670135 147.51706696 C-86.88553223 122.06897844 -88.29228513 96.61631875 -89.61462402 71.15784836 C-89.74837248 68.59370191 -89.88370806 66.02964401 -90.01953125 63.46560669 C-90.23337165 59.42453595 -90.44284296 55.3832608 -90.64904022 51.34179306 C-90.72495434 49.86526314 -90.80218289 48.38880001 -90.88092804 46.91241837 C-91.28703744 39.27406296 -91.58672685 31.63657978 -91.67089844 23.98754883 C-91.68747498 22.67192459 -91.70405151 21.35630035 -91.72113037 20.00080872 C-91.5 16.875 -91.5 16.875 -89.5 14.875 C-87 14.625 -87 14.625 -84.5 14.875 C-81.84841203 17.52658797 -81.84493262 19.43529068 -81.19873047 23.12011719 C-81.08445332 23.75876457 -80.97017616 24.39741196 -80.85243607 25.05541229 C-80.47482739 27.17631083 -80.10853703 29.2990051 -79.7421875 31.421875 C-79.47816466 32.91742415 -79.21341308 34.41284481 -78.94796753 35.90814209 C-78.396899 39.02011785 -77.85048135 42.13285672 -77.3079834 45.24633789 C-76.55283117 49.57918778 -75.78664307 53.91000906 -75.01660156 58.24023438 C-73.67063091 65.81652117 -72.33612898 73.39479792 -71.00350571 80.97344208 C-70.35192163 84.67727231 -69.69903098 88.38087216 -69.04614258 92.08447266 C-68.84956039 93.19963981 -68.84956039 93.19963981 -68.64900684 94.33733559 C-68.38528208 95.8333597 -68.12155204 97.32938288 -67.8578167 98.82540512 C-67.46764556 101.0387932 -67.0775656 103.25219732 -66.68751526 105.46560669 C-64.52654472 117.72808131 -62.36328433 129.99014385 -60.1875 142.25 C-60.03015381 143.13691528 -59.87280762 144.02383057 -59.71069336 144.93762207 C-57.12880813 159.47697211 -54.47346528 174.00235022 -51.7565918 188.51708984 C-51.48585733 189.96966918 -51.21542123 191.42230417 -50.9453125 192.875 C-50.81717667 193.56195953 -50.68904083 194.24891907 -50.55702209 194.95669556 C-49.56179757 200.36439883 -48.74952926 205.78849485 -48.02294922 211.23828125 C-47.51947926 213.77678523 -46.77969675 215.64067202 -45.5 217.875 C-43.52 217.875 -41.54 217.875 -39.5 217.875 C-35.57530242 210.27089844 -37.71629334 200.66967703 -38.671875 192.4921875 C-38.85523407 190.87384506 -38.85523407 190.87384506 -39.04229736 189.22280884 C-39.43959995 185.73124711 -39.84452974 182.24062187 -40.25 178.75 C-40.52883221 176.31838074 -40.80747692 173.88673997 -41.0859375 171.45507812 C-42.60349108 158.26643553 -44.20049292 145.09371271 -45.95996094 131.93505859 C-47.80518164 117.93741811 -49.32383155 103.90201934 -50.89147949 89.87115479 C-52.54435709 75.09307976 -54.2842261 60.33584047 -56.23339844 45.59399414 C-57.14645937 38.6738759 -58.00881607 31.75329387 -58.75 24.8125 C-58.83024414 24.07370605 -58.91048828 23.33491211 -58.99316406 22.57373047 C-59.39494289 18.65778847 -59.57368027 14.81075429 -59.5 10.875 C-58.51 10.875 -57.52 10.875 -56.5 10.875 C-55.72744206 14.70798775 -54.95729665 18.54145682 -54.1875 22.375 C-53.86749023 23.96248047 -53.86749023 23.96248047 -53.54101562 25.58203125 C-51.96197304 33.45367637 -50.46208071 41.3386097 -48.99276733 49.23132324 C-47.95320485 54.8085338 -46.90760755 60.3846174 -45.86328125 65.9609375 C-45.62117416 67.25400314 -45.37906708 68.54706879 -45.12962341 69.87931824 C-37.91052017 108.43367247 -30.66915668 146.98253133 -23.11230469 185.47241211 C-22.95322632 186.28392227 -22.79414795 187.09543243 -22.63024902 187.93153381 C-22.32446365 189.49071695 -22.01793008 191.04975358 -21.71057129 192.60862732 C-20.71810154 197.66770755 -19.81226745 202.7359009 -19.00537109 207.82836914 C-18.55083564 210.16606103 -18.55083564 210.16606103 -16.5 212.875 C-13.91619823 213.12530977 -13.91619823 213.12530977 -11.5 212.875 C-9.01528748 208.55258944 -8.14608939 205.82022298 -8.63671875 200.86328125 C-8.81533447 199.01790771 -8.81533447 199.01790771 -8.99755859 197.13525391 C-9.16113133 195.71471385 -9.32887774 194.2946504 -9.5 192.875 C-9.5941217 192.08704041 -9.68824341 191.29908081 -9.78521729 190.48724365 C-10.45216379 185.00332869 -11.17331597 179.5273081 -11.91040039 174.0524292 C-12.60233671 168.90733445 -13.27869433 163.76018347 -13.95703125 158.61328125 C-14.09199005 157.59169922 -14.22694885 156.57011719 -14.36599731 155.51757812 C-17.77732581 129.65140924 -20.68519755 103.72244966 -23.66558838 77.80395508 C-25.01423388 66.07611478 -26.37176247 54.34940055 -27.75 42.625 C-27.90082031 41.33859619 -28.05164063 40.05219238 -28.20703125 38.72680664 C-28.80074343 33.68794193 -29.39504506 28.65009567 -30.05273438 23.61914062 C-30.1453656 22.90348938 -30.23799683 22.18783813 -30.33343506 21.45050049 C-30.59386884 19.44738968 -30.85880393 17.44486559 -31.12402344 15.44238281 C-31.4639319 12.21722539 -31.57114851 9.11412937 -31.5 5.875 C-30.51 5.875 -29.52 5.875 -28.5 5.875 C-26.49641796 13.56515203 -24.77227159 21.24507987 -23.37109375 29.06640625 C-23.18062973 30.10902115 -22.99016571 31.15163605 -22.79393005 32.22584534 C-22.38510543 34.4638681 -21.97782201 36.70217286 -21.57196045 38.94073486 C-17.9943261 58.65850777 -14.27230419 78.34303361 -10.375 98 C-6.9935037 115.0670884 -3.76585967 132.15429985 -0.68807983 149.27871704 C1.72334824 162.69390929 4.24895536 176.07390924 7.00048828 189.42431641 C7.49212222 191.83635038 7.96631722 194.2511079 8.43359375 196.66796875 C8.64375122 197.74921021 8.64375122 197.74921021 8.8581543 198.85229492 C9.21470636 200.69281444 9.5684454 202.53387834 9.921875 204.375 C10.25070164 206.80223892 10.25070164 206.80223892 11.5 207.875 C13.49958364 207.91580783 15.50045254 207.91754356 17.5 207.875 C23.20522968 196.20502434 17.25740895 176.34432278 15.5859375 163.91796875 C15.28980521 161.68652683 14.99413114 159.45502405 14.69888306 157.22346497 C13.92068939 151.35214818 13.13574577 145.48175266 12.3494873 139.61151123 C11.72917671 134.97178905 11.1136658 130.33143684 10.49843979 125.69103813 C6.89359375 98.50316125 3.21511776 71.32564647 -0.53332329 44.157197 C-0.79827757 42.23290559 -1.0620535 40.30845152 -1.32457161 38.38382626 C-1.99060374 33.50984364 -2.6790707 28.64054718 -3.40264893 23.77474976 C-3.619337 22.28324418 -3.619337 22.28324418 -3.8404026 20.76160717 C-4.11413665 18.87975969 -4.39532106 16.99897405 -4.68552208 15.11959553 C-5.40622257 10.1003762 -5.6850458 5.8349041 -4.5 0.875 C-2.5 -0.125 -2.5 -0.125 0 0 Z " fill="#F7F7F7" transform="translate(813.5,571.125)"/>
<path d="M0 0 C4.20494274 1.81577073 6.17138815 3.82031576 8 8 C15.48752164 33.1767915 6.46217492 61.79516116 0.68112183 86.45437622 C-1.70979045 96.65290806 -3.93910578 106.88078367 -6.125 117.125 C-8.27460712 127.17799466 -10.4768626 137.20502512 -12.9375 147.1875 C-15.87293181 159.11142645 -18.41096645 171.11379717 -20.95822144 183.12512207 C-23.53206391 195.25562968 -26.1953209 207.35835678 -29 219.4375 C-32.22044893 233.32199446 -35.18430317 247.25204752 -38.07376099 261.20892334 C-40.4401319 272.63732902 -42.87681937 284.04346322 -45.45394897 295.42617798 C-49.40313937 312.87364881 -52.94545034 330.39427682 -56.41186523 347.94360352 C-59.67048062 364.43912528 -63.07228642 380.90190962 -66.5546875 397.3515625 C-71.32101748 419.9253089 -75.44773105 442.61426998 -79.484375 465.328125 C-79.7105249 466.60034912 -79.9366748 467.87257324 -80.16967773 469.18334961 C-80.58304437 471.51707351 -80.99419765 473.85119113 -81.40258789 476.18579102 C-82.2006849 480.71466647 -83.02292918 485.22027959 -84.05078125 489.703125 C-85.05234974 494.08862407 -85.73403546 498.48715825 -86.375 502.9375 C-87.1662701 508.39659167 -87.97040152 513.85300454 -88.82714844 519.30224609 C-91.94179999 539.1167384 -94.71386559 558.97763697 -97.4789772 578.8433075 C-97.87992686 581.72288415 -98.28161578 584.60235695 -98.68344116 587.48181152 C-101.66964626 608.89078419 -104.63233027 630.30017366 -107.3125 651.75 C-111.58201549 685.91658369 -116.19301493 720.05726426 -122 754 C-122.23812415 755.39957586 -122.47624243 756.79915272 -122.71435547 758.19873047 C-125.78634141 776.20458316 -128.98738219 794.17591764 -133 812 C-133.25362305 813.12680176 -133.50724609 814.25360352 -133.76855469 815.41455078 C-137.48668322 831.74188822 -141.7845804 847.79256872 -146.94091797 863.72460938 C-147.66308576 865.95803562 -148.37795604 868.19383149 -149.08642578 870.43164062 C-153.82944808 885.41313571 -159.03944875 899.8972583 -166 914 C-166.54527344 915.10730469 -167.09054687 916.21460938 -167.65234375 917.35546875 C-172.15472584 926.01389585 -177.97733844 935.48866922 -187 940 C-192.7338153 940.80273414 -195.57749307 939.40270227 -200.0078125 936.09375 C-205.52572072 930.29453665 -208.09987659 923.67517606 -210.1875 916.0625 C-210.43435547 915.23943359 -210.68121094 914.41636719 -210.93554688 913.56835938 C-214.91870069 899.45206226 -215.35406796 884.8798982 -215.25 870.3125 C-215.24656586 869.51464081 -215.24313171 868.71678162 -215.23959351 867.89474487 C-215.05530692 830.95374421 -211.1213281 794.29191464 -202.75292969 758.29931641 C-201.74237317 753.87108656 -200.82375713 749.42559273 -199.90039062 744.97851562 C-194.90140523 721.02447328 -189.07498483 697.22651225 -182.59838867 673.63037109 C-180.22458733 664.95182477 -178.03657558 656.23316488 -175.875 647.5 C-173.47218143 637.80188195 -171.00325382 628.13511507 -168.2734375 618.5234375 C-166.64451518 612.78155189 -165.10866323 607.01460426 -163.5625 601.25 C-158.78931398 583.47747139 -153.94951527 565.72424182 -149 548 C-148.73574219 547.05253906 -148.47148438 546.10507813 -148.19921875 545.12890625 C-144.92464235 533.39126937 -141.62831071 521.66053894 -138.26757812 509.94726562 C-136.63723483 504.25612002 -135.0346961 498.55769594 -133.4453125 492.85498047 C-128.58695369 475.42346853 -123.56329429 458.04850774 -118.25 440.75 C-105.12667256 397.92160115 -113.81611611 362.69923301 -131.58129883 322.78442383 C-150.30333534 280.4413721 -148.72669185 235.67839437 -132.10473633 192.68432617 C-131.08028423 190.11854732 -130.04070364 187.55922515 -129 185 C-128.33979141 183.33465617 -127.6796358 181.66929132 -127.01953125 180.00390625 C-116.22655887 153.20139952 -103.28874041 127.10588771 -89 102 C-88.52852539 101.17145508 -88.05705078 100.34291016 -87.57128906 99.48925781 C-69.79090123 68.53090037 -49.28969093 39.31769154 -24.1875 13.875 C-23.39915771 13.06893311 -22.61081543 12.26286621 -21.79858398 11.43237305 C-8.99264597 -1.35738052 -8.99264597 -1.35738052 0 0 Z " fill="#F8F8F8" transform="translate(1248,576)"/>
<path d="M0 0 C53.33173475 -1.05878954 105.98849583 4.28873298 157.99450684 16.10284424 C158.96895752 16.32375732 159.9434082 16.54467041 160.9473877 16.77227783 C175.79735508 20.26092133 190.29518484 24.99861037 204.74450684 29.85284424 C205.52858917 30.11590363 206.31267151 30.37896301 207.12051392 30.6499939 C211.76654447 32.21041044 216.40934713 33.7801066 221.04943848 35.35809326 C222.82534355 35.96161591 224.60223527 36.56223356 226.37927246 37.16241455 C262.4645743 49.43141718 297.60708889 67.15015308 330.05700684 87.04034424 C330.91600586 87.56612061 331.77500488 88.09189697 332.66003418 88.63360596 C356.26962866 103.16153719 378.76259922 119.2912108 400.05700684 137.04034424 C400.6367627 137.52100342 401.21651855 138.0016626 401.81384277 138.49688721 C409.19398251 144.62303759 416.3360393 150.95996317 423.36193848 157.48883057 C424.64276043 158.6611802 425.93579399 159.82020749 427.23449707 160.97271729 C433.44386082 166.48810422 439.39571069 172.2236147 445.25354004 178.10650635 C446.75005609 179.60841348 448.25188983 181.10485486 449.75427246 182.60089111 C454.53171039 187.37503392 459.19869304 192.19860637 463.59240723 197.33062744 C465.64538547 199.72719464 467.79086864 202.03508016 469.93200684 204.35284424 C474.85277985 209.75531943 479.48401173 215.34272005 484.05700684 221.04034424 C484.98090133 222.1723321 485.90540973 223.30381911 486.83044434 224.43487549 C510.67565985 253.7218135 531.1267097 285.84403573 549.05700684 319.04034424 C549.71998779 320.26358398 549.71998779 320.26358398 550.3963623 321.51153564 C557.54849933 334.76215799 564.0859541 348.21710512 570.05700684 362.04034424 C570.70621094 363.54298828 570.70621094 363.54298828 571.36853027 365.07598877 C583.00885214 392.28067088 592.7117552 420.37246891 600.05700684 449.04034424 C600.27904785 449.89563721 600.50108887 450.75093018 600.7298584 451.63214111 C609.95998681 487.52244434 615.19451089 524.14035249 618.05700684 561.04034424 C618.16722168 562.40787842 618.16722168 562.40787842 618.27966309 563.80303955 C618.72462336 569.54728734 618.94166611 575.28046075 619.05700684 581.04034424 C619.07032043 581.68153198 619.08363403 582.32271973 619.09735107 582.9833374 C620.15614061 636.31507215 614.8086181 688.97183323 602.99450684 740.97784424 C602.77359375 741.95229492 602.55268066 742.92674561 602.32507324 743.9307251 C598.91404484 758.45031146 594.30157527 772.67948982 589.82751465 786.89898682 C589.31128355 788.54304218 588.79763571 790.18791079 588.28649902 791.83355713 C585.29869 801.45282158 582.10823491 810.80585551 578.05700684 820.04034424 C577.22900317 822.03226472 576.40487163 824.02579858 575.58435059 826.02081299 C569.64984062 840.28969251 563.29935468 854.29066485 556.47399902 868.15509033 C555.14718632 870.85672239 553.83827449 873.5662666 552.53356934 876.27862549 C533.97621195 914.5333189 509.23986411 950.42788771 482.05700684 983.04034424 C481.57634766 983.6201001 481.09568848 984.19985596 480.60046387 984.79718018 C474.47431349 992.17731992 468.1373879 999.31937671 461.60852051 1006.34527588 C460.43617088 1007.62609783 459.27714359 1008.91913139 458.12463379 1010.21783447 C452.60924686 1016.42719822 446.87373637 1022.37904809 440.99084473 1028.23687744 C439.48893759 1029.73339349 437.99249621 1031.23522723 436.49645996 1032.73760986 C431.72231715 1037.5150478 426.8987447 1042.18203044 421.76672363 1046.57574463 C419.37015643 1048.62872287 417.06227091 1050.77420604 414.74450684 1052.91534424 C409.34203164 1057.83611726 403.75463103 1062.46734914 398.05700684 1067.04034424 C396.92501897 1067.96423873 395.79353197 1068.88874713 394.66247559 1069.81378174 C372.89365666 1087.53779845 349.382379 1103.93855224 325.01843262 1117.91387939 C322.69017863 1119.25101705 320.37221476 1120.60538787 318.05310059 1121.95831299 C308.33789105 1127.59846324 298.57100563 1133.00791191 288.44909668 1137.88116455 C285.6288161 1139.24784063 282.82207204 1140.64087063 280.01403809 1142.03253174 C259.73492323 1152.01719581 239.02586664 1161.01765249 217.57507324 1168.19024658 C214.5241171 1169.22024748 211.48477517 1170.28223808 208.44372559 1171.34112549 C185.5642195 1179.22982491 162.48124784 1185.47230668 138.74450684 1190.29034424 C137.65138184 1190.51238525 136.55825684 1190.73442627 135.43200684 1190.9631958 C114.55003067 1195.03166444 93.48328009 1197.82350592 72.30700684 1199.79034424 C71.15756592 1199.89807159 70.008125 1200.00579895 68.82385254 1200.11679077 C35.21230387 1203.20127436 1.66690049 1203.06608699 -31.94299316 1200.04034424 C-34.35184572 1199.84370991 -36.76069991 1199.64709566 -39.16955566 1199.45050049 C-105.19893966 1193.74458155 -171.40154223 1176.56399683 -231.39660645 1148.24151611 C-233.20708839 1147.38748245 -235.02093517 1146.54056617 -236.83703613 1145.69854736 C-251.41916487 1138.93729957 -265.53178024 1131.60786649 -279.41516113 1123.50860596 C-281.63426426 1122.21966582 -283.86418438 1120.9544743 -286.10314941 1119.70050049 C-313.63959086 1104.1232914 -339.67155706 1085.27086514 -363.94299316 1065.04034424 C-364.52274902 1064.55968506 -365.10250488 1064.07902588 -365.6998291 1063.58380127 C-373.07996884 1057.45765089 -380.22202563 1051.12072531 -387.2479248 1044.59185791 C-388.52874675 1043.41950828 -389.82178032 1042.26048099 -391.1204834 1041.10797119 C-397.32984715 1035.59258426 -403.28169702 1029.85707377 -409.13952637 1023.97418213 C-410.63604242 1022.47227499 -412.13787616 1020.97583362 -413.64025879 1019.47979736 C-418.41769672 1014.70565455 -423.08467937 1009.88208211 -427.47839355 1004.75006104 C-429.5313718 1002.35349383 -431.67685497 1000.04560831 -433.81799316 997.72784424 C-438.73876618 992.32536904 -443.36999806 986.73796843 -447.94299316 981.04034424 C-448.86688765 979.90835638 -449.79139606 978.77686937 -450.71643066 977.64581299 C-468.46052362 955.85233622 -484.87161454 932.31808908 -498.8560791 907.92266846 C-500.06646248 905.82651934 -501.30534924 903.74848295 -502.54455566 901.66925049 C-528.11446737 858.34636363 -547.58453283 811.51406646 -560.94299316 763.04034424 C-561.51306205 761.04027479 -562.083369 759.04027317 -562.65393066 757.04034424 C-567.27298615 740.52711834 -570.87597353 723.90779658 -573.94299316 707.04034424 C-574.13490234 706.0010376 -574.32681152 704.96173096 -574.52453613 703.89093018 C-578.51651786 681.81761946 -580.18702337 659.38271589 -581.94299316 637.04034424 C-581.99954071 636.32255798 -582.05608826 635.60477173 -582.11434937 634.86523438 C-582.95490293 623.87756543 -583.14359867 612.93005688 -583.13049316 601.91534424 C-583.13022125 601.04661682 -583.12994934 600.1778894 -583.12966919 599.28283691 C-583.10662225 583.12969753 -582.35275128 567.13673742 -580.94299316 551.04034424 C-580.84647461 549.84925049 -580.74995605 548.65815674 -580.6505127 547.43096924 C-575.15419223 480.13940049 -558.00343468 412.71886669 -529.14416504 351.58673096 C-528.29013137 349.77624902 -527.44321509 347.96240223 -526.60119629 346.14630127 C-519.83994849 331.56417253 -512.51051542 317.45155716 -504.41125488 303.56817627 C-503.12231474 301.34907314 -501.85712323 299.11915303 -500.60314941 296.88018799 C-485.02594033 269.34374654 -466.17351406 243.31178034 -445.94299316 219.04034424 C-445.46233398 218.46058838 -444.9816748 217.88083252 -444.4864502 217.2835083 C-438.36029982 209.90336856 -432.02337423 202.76131177 -425.49450684 195.7354126 C-424.3221572 194.45459065 -423.16312991 193.16155708 -422.01062012 191.862854 C-416.49523319 185.65349026 -410.7597227 179.70164039 -404.87683105 173.84381104 C-403.37492392 172.34729498 -401.87848254 170.84546124 -400.38244629 169.34307861 C-395.60830348 164.56564068 -390.78473103 159.89865803 -385.65270996 155.50494385 C-383.25614276 153.4519656 -380.94825724 151.30648244 -378.63049316 149.16534424 C-373.22801797 144.24457122 -367.64061736 139.61333934 -361.94299316 135.04034424 C-360.8110053 134.11644975 -359.67951829 133.19194134 -358.54846191 132.26690674 C-329.2615239 108.42169123 -297.13930168 87.97064137 -263.94299316 70.04034424 C-263.1275 69.59835693 -262.31200684 69.15636963 -261.47180176 68.70098877 C-248.22117941 61.54885174 -234.76623228 55.01139697 -220.94299316 49.04034424 C-219.94123047 48.6075415 -218.93946777 48.17473877 -217.90734863 47.7288208 C-190.70266652 36.08849893 -162.61086849 26.38559588 -133.94299316 19.04034424 C-133.0877002 18.81830322 -132.23240723 18.59626221 -131.35119629 18.36749268 C-95.46089306 9.13736427 -58.84298491 3.90284018 -21.94299316 1.04034424 C-21.03130371 0.96686768 -20.11961426 0.89339111 -19.18029785 0.81768799 C-12.78868691 0.32258174 -6.40828174 0.13306133 0 0 Z M-117.26965332 18.43292236 C-119.84931674 19.01905959 -122.43267462 19.58552815 -125.01721191 20.14971924 C-177.80094764 31.91526204 -231.32198577 53.42164522 -277.94299316 81.04034424 C-278.81262695 81.55387451 -279.68226074 82.06740479 -280.57824707 82.59649658 C-309.79999406 99.93537363 -337.92257533 119.15192408 -363.94299316 141.04034424 C-364.47457031 141.48700439 -365.00614746 141.93366455 -365.55383301 142.39385986 C-373.63556888 149.20195654 -381.50202232 156.20834862 -389.21740723 163.42803955 C-391.07715127 165.16569513 -392.94325571 166.89634483 -394.81018066 168.62628174 C-407.28364835 180.18834775 -407.28364835 180.18834775 -418.83752441 192.65362549 C-421.0486955 195.16016636 -423.32220467 197.5973574 -425.61022949 200.0335083 C-431.67576463 206.49531929 -437.4056699 213.11639442 -442.94299316 220.04034424 C-443.92427538 221.23192533 -444.90747362 222.4219302 -445.89221191 223.61065674 C-464.91822944 246.64015657 -481.76302727 271.321256 -496.94299316 297.04034424 C-497.60041504 298.15409424 -498.25783691 299.26784424 -498.93518066 300.41534424 C-500.57969744 303.2540122 -502.19578254 306.10609034 -503.78967285 308.97344971 C-504.61778732 310.45753462 -505.45256602 311.9379083 -506.29162598 313.41583252 C-521.23173965 339.78161374 -533.72646826 367.51672695 -543.94299316 396.04034424 C-544.36806152 397.22354248 -544.79312988 398.40674072 -545.2310791 399.62579346 C-557.16137272 433.04551749 -566.09864255 467.02058339 -571.94299316 502.04034424 C-572.12458984 503.12460693 -572.30618652 504.20886963 -572.49328613 505.32598877 C-575.53478584 523.81995846 -577.45356392 542.3674117 -578.94299316 561.04034424 C-579.01646973 561.93640381 -579.08994629 562.83246338 -579.16564941 563.75567627 C-581.32911065 591.46063867 -580.64955862 619.87010058 -578.24621582 647.52178955 C-577.94710681 650.99261003 -577.68451775 654.46492005 -577.42346191 657.93878174 C-574.19329111 697.56752971 -566.83793195 738.49647447 -553.92297363 776.16827393 C-552.93569526 779.06173251 -551.97011081 781.96203815 -551.0067749 784.86354065 C-538.52818373 822.38625908 -523.53138701 858.64038728 -503.94299316 893.04034424 C-503.49391602 893.83907959 -503.04483887 894.63781494 -502.58215332 895.46075439 C-485.15775253 926.45088714 -464.91727958 955.88891484 -441.94299316 983.04034424 C-441.50068359 983.56612061 -441.05837402 984.09189697 -440.60266113 984.63360596 C-433.79161996 992.71984714 -426.78296764 1000.59099076 -419.55969238 1008.31036377 C-417.80915373 1010.18356173 -416.06520676 1012.06275926 -414.32189941 1013.94268799 C-413.09158927 1015.2670541 -411.86112334 1016.5912755 -410.63049316 1017.91534424 C-410.06797852 1018.52176758 -409.50546387 1019.12819092 -408.92590332 1019.75299072 C-403.34153808 1025.74422391 -397.64150717 1031.49130695 -391.43127441 1036.83331299 C-388.76806093 1039.19550392 -386.17882094 1041.62492767 -383.58972168 1044.06768799 C-376.91937395 1050.35817916 -370.11479569 1056.32215538 -362.94299316 1062.04034424 C-361.75256364 1063.02014111 -360.56387533 1064.00205592 -359.37658691 1064.98565674 C-336.96115971 1083.50780355 -312.98355187 1099.94525454 -288.00061035 1114.81085205 C-286.01701394 1115.99611445 -284.04563729 1117.19956883 -282.07580566 1118.40753174 C-221.08274149 1155.47995016 -151.10672329 1179.3309142 -80.94299316 1191.04034424 C-79.85873047 1191.22194092 -78.77446777 1191.4035376 -77.65734863 1191.59063721 C-59.16366513 1194.63208984 -40.61588673 1196.55279816 -21.94299316 1198.04034424 C-21.04161621 1198.1138208 -20.14023926 1198.18729736 -19.21154785 1198.26300049 C8.48073408 1200.40809691 36.77685047 1199.65357523 64.42419434 1197.34356689 C66.800941 1197.14518522 69.17856163 1196.95694738 71.55700684 1196.78009033 C112.31819949 1193.73332889 154.45238532 1186.29893873 193.18493652 1173.02032471 C196.07839511 1172.03304634 198.97870075 1171.06746188 201.88020325 1170.10412598 C239.40292168 1157.62553481 275.65704987 1142.62873809 310.05700684 1123.04034424 C311.25510986 1122.36672852 311.25510986 1122.36672852 312.47741699 1121.67950439 C343.46754974 1104.2551036 372.90557744 1084.01463065 400.05700684 1061.04034424 C400.5827832 1060.59803467 401.10855957 1060.1557251 401.65026855 1059.70001221 C409.73650973 1052.88897103 417.60765335 1045.88031871 425.32702637 1038.65704346 C427.20022433 1036.9065048 429.07942186 1035.16255783 430.95935059 1033.41925049 C432.2837167 1032.18894035 433.6079381 1030.95847441 434.93200684 1029.72784424 C435.53843018 1029.16532959 436.14485352 1028.60281494 436.76965332 1028.02325439 C442.7608865 1022.43888915 448.50796955 1016.73885824 453.84997559 1010.52862549 C456.21216651 1007.865412 458.64159027 1005.27617202 461.08435059 1002.68707275 C467.37484176 996.01672502 473.33881798 989.21214676 479.05700684 982.04034424 C480.0368037 980.84991471 481.01871852 979.66122641 482.00231934 978.47393799 C506.21228635 949.17513376 526.57347657 917.19405509 545.05700684 884.04034424 C545.68059082 882.92731934 545.68059082 882.92731934 546.31677246 881.79180908 C569.1063855 840.80966943 586.44646804 794.96905336 597.47399902 749.40948486 C598.10213248 746.85696934 598.76998795 744.31659648 599.43981934 741.77471924 C606.37756608 714.89841178 610.70495863 687.33117583 613.43200684 659.72784424 C613.51154602 658.92692352 613.59108521 658.12600281 613.67303467 657.30081177 C615.47118135 638.84560889 616.2692212 620.3927367 616.24450684 601.85284424 C616.24390259 600.99761169 616.24329834 600.14237915 616.24267578 599.26123047 C616.15724449 554.10870942 610.72114977 509.73925191 600.66442871 465.71368408 C600.07829149 463.13402066 599.51182293 460.55066278 598.94763184 457.96612549 C587.57514513 406.94575669 566.8849209 357.03237606 541.41784668 311.48565674 C540.20381834 309.30415192 539.01042614 307.11329813 537.82653809 304.91534424 C531.27332478 292.84653524 523.67312626 281.45757255 516.05700684 270.04034424 C515.49964844 269.20035889 514.94229004 268.36037354 514.36804199 267.49493408 C503.18853479 250.6865365 491.09939137 234.45407141 478.05700684 219.04034424 C477.61469727 218.51456787 477.1723877 217.9887915 476.7166748 217.44708252 C469.90563363 209.36084134 462.89698131 201.48969772 455.67370605 193.77032471 C453.9231674 191.89712675 452.17922043 190.01792922 450.43591309 188.13800049 C449.20560294 186.81363438 447.97513701 185.48941297 446.74450684 184.16534424 C446.18199219 183.5589209 445.61947754 182.95249756 445.03991699 182.32769775 C439.45555175 176.33646457 433.75552084 170.58938153 427.54528809 165.24737549 C424.8820746 162.88518456 422.29283461 160.45576081 419.70373535 158.01300049 C413.03338762 151.72250932 406.22880936 145.7585331 399.05700684 140.04034424 C397.86657731 139.06054737 396.677889 138.07863256 395.49060059 137.09503174 C366.19179636 112.88506473 334.21071768 92.52387451 301.05700684 74.04034424 C300.31499023 73.62462158 299.57297363 73.20889893 298.80847168 72.78057861 C273.00815556 58.43337211 245.69827048 47.29985603 217.93103027 37.42266846 C214.50856906 36.20524981 211.09821181 34.95683066 207.68981934 33.70050049 C194.45086248 28.87805873 181.0211421 25.19982851 167.34020996 21.85186768 C164.29567856 21.09933776 161.26197949 20.31405373 158.22888184 19.51690674 C131.54562324 12.63031992 104.1478418 8.37263394 76.74450684 5.66534424 C75.94358612 5.58580505 75.14266541 5.50626587 74.31747437 5.42431641 C55.86227149 3.62616973 37.40939929 2.82812987 18.86950684 2.85284424 C18.01427429 2.85344849 17.15904175 2.85405273 16.27789307 2.85467529 C-28.87462798 2.94010658 -73.24408549 8.3762013 -117.26965332 18.43292236 Z " fill="#EDEAEA" transform="translate(981.9429931640625,398.95965576171875)"/>
<path d="M0 0 C0.66 0.33 1.32 0.66 2 1 C1.01 5.62 0.02 10.24 -1 15 C-1.99 14.34 -2.98 13.68 -4 13 C-2.88767123 3.46575342 -2.88767123 3.46575342 -2 1 C-1.34 0.67 -0.68 0.34 0 0 Z " fill="#E2DDDD" transform="translate(420,847)"/>
<path d="M0 0 C-2 3 -2 3 -4.6015625 3.73046875 C-6.09816406 3.95669922 -6.09816406 3.95669922 -7.625 4.1875 C-8.62789062 4.34605469 -9.63078125 4.50460937 -10.6640625 4.66796875 C-11.82035156 4.83232422 -11.82035156 4.83232422 -13 5 C-12.67 3.68 -12.34 2.36 -12 1 C-3.96428571 -1.27678571 -3.96428571 -1.27678571 0 0 Z " fill="#E4E0E0" transform="translate(860,417)"/>
<path d="M0 0 C-2 3 -2 3 -4.3828125 3.73046875 C-5.74019531 3.95669922 -5.74019531 3.95669922 -7.125 4.1875 C-8.49011719 4.42533203 -8.49011719 4.42533203 -9.8828125 4.66796875 C-10.58148437 4.77753906 -11.28015625 4.88710937 -12 5 C-12.33 4.34 -12.66 3.68 -13 3 C-12.67 2.34 -12.34 1.68 -12 1 C-4.35711773 -1.38056989 -4.35711773 -1.38056989 0 0 Z " fill="#E6E2E2" transform="translate(1154,1579)"/>
<path d="M0 0 C-3.54352618 4.31385796 -7.95192247 5.9721398 -13 8 C-12.7734375 6.17578125 -12.7734375 6.17578125 -12 4 C-10.0390625 2.48046875 -10.0390625 2.48046875 -7.625 1.1875 C-6.83351563 0.74792969 -6.04203125 0.30835938 -5.2265625 -0.14453125 C-3 -1 -3 -1 0 0 Z " fill="#F1EEEE" transform="translate(1276,1532)"/>
<path d="M0 0 C0.66 0.33 1.32 0.66 2 1 C-1.74427866 5.19813062 -4.8403063 7.07776117 -10 9 C-10 7.68 -10 6.36 -10 5 C-8.38007835 4.13624104 -6.75388139 3.28424146 -5.125 2.4375 C-4.22007812 1.96183594 -3.31515625 1.48617188 -2.3828125 0.99609375 C-1.20332031 0.50302734 -1.20332031 0.50302734 0 0 Z " fill="#E7E4E4" transform="translate(739,458)"/>
<path d="M0 0 C0.33 0 0.66 0 1 0 C0.03644647 9.41002278 0.03644647 9.41002278 -1 14 C-1.99 13.34 -2.98 12.68 -4 12 C-2.7027027 2.7027027 -2.7027027 2.7027027 0 0 Z " fill="#EEEBEB" transform="translate(1579,1153)"/>
<path d="M0 0 C-2.34591852 2.7710688 -4.14776201 3.52059284 -7.6875 4.1875 C-8.49574219 4.34605469 -9.30398438 4.50460937 -10.13671875 4.66796875 C-11.05904297 4.83232422 -11.05904297 4.83232422 -12 5 C-10.359375 1.1640625 -10.359375 1.1640625 -7.125 -0.3125 C-4.16022313 -0.96475091 -2.77684731 -1.0680182 0 0 Z " fill="#F2F0F0" transform="translate(1165,1576)"/>
<path d="M0 0 C-0.11458693 1.43836751 -0.24209116 2.87570966 -0.375 4.3125 C-0.44460938 5.11300781 -0.51421875 5.91351562 -0.5859375 6.73828125 C-1 9 -1 9 -3 12 C-3.66 12 -4.32 12 -5 12 C-4.67421616 9.99875639 -4.33944795 7.99897128 -4 6 C-3.855625 5.071875 -3.71125 4.14375 -3.5625 3.1875 C-3.376875 2.465625 -3.19125 1.74375 -3 1 C-1 0 -1 0 0 0 Z " fill="#F0EDED" transform="translate(424,836)"/>
<path d="M0 0 C0.33 0.99 0.66 1.98 1 3 C-1.15343189 6.23014784 -2.27059611 7.75686537 -6 9 C-4.68775452 5.06326356 -3.08089673 2.77280706 0 0 Z " fill="#F3F1F1" transform="translate(483,696)"/>
<path d="M0 0 C1 3 1 3 -0.4375 6.1875 C-1.2109375 7.5796875 -1.2109375 7.5796875 -2 9 C-2.99 9 -3.98 9 -5 9 C-3.90931332 5.22454612 -3.0916909 2.52956528 0 0 Z " fill="#F9F8F8" transform="translate(1539,1261)"/>
<path d="M0 0 C0.6875 1.75 0.6875 1.75 1 4 C-0.3125 6.25 -0.3125 6.25 -2 8 C-2.66 8 -3.32 8 -4 8 C-3.50168276 4.31245243 -2.89932357 2.39509338 0 0 Z " fill="#F1EFEF" transform="translate(452,756)"/>
<path d="M0 0 C0.33 0.99 0.66 1.98 1 3 C-0.3125 5.1875 -0.3125 5.1875 -2 7 C-2.66 7 -3.32 7 -4 7 C-3.6875 4.625 -3.6875 4.625 -3 2 C-2.01 1.34 -1.02 0.68 0 0 Z " fill="#F1EEEE" transform="translate(1535,1269)"/>
<path d="M0 0 C0.66 0.33 1.32 0.66 2 1 C-0.36292656 3.52588702 -1.66462511 4.88820837 -5 6 C-4.75 4.125 -4.75 4.125 -4 2 C-2.0625 0.6875 -2.0625 0.6875 0 0 Z " fill="#F8F7F7" transform="translate(1268,1534)"/>
<path d="M0 0 C-1.28965176 1.37562854 -2.62689293 2.70766393 -4 4 C-4.66 4 -5.32 4 -6 4 C-6 2.68 -6 1.36 -6 0 C-3 -1 -3 -1 0 0 Z " fill="#E5E1E1" transform="translate(786,440)"/>
</svg>
